# xmcd
#
# Track frame offsets:
# 150
# 19217
# 31387
# 48637
# 66055
# 84321
# 94068
# 116738
# 138639
# 151162
# 163896
# 180227
# 194746
# 205423
# 212178
# 231311
# 249250
# 257641
# 275304
# 290360
# 309378
# 326516
# 343261
#
# Disc length: 4745 seconds
#
# Revision: 1
# Processed by: cddbd v1.5.2PL0 Copyright (c) Steve Scherf et al.
# Submitted via: CedeCatalogueitor 2.6.0.6 http://personales.ya.com/cdcatalogueitor
#
DISCID=56128717
DTITLE=Varios Artistas - Juegos Olímpicos
DYEAR=1900
DGENRE=
TTITLE0=Olivia De Happyland: Si Existe Cielo
TTITLE1=Nebulosa: Ba-ba-badminton
TTITLE2=Souvenir: Les Surfeurs
TTITLE3=Llum: No More Races
TTITLE4=Francisco Nixon: Nadia
TTITLE5=J'aime: After The Game
TTITLE6=Souvlaki: Nadadora
TTITLE7=Flow: Se Va El Avión A Pekín (Suze Rmx)
TTITLE8=Aldo Linares: Soy El Mejor
TTITLE9=Montevideo: Olimpiadas Sin Medallas
TTITLE10=Colorado: El último Partido
TTITLE11=La Costa Brava: Olímpicos
TTITLE12=Linda Guilala: La Fuga De Nadia Comaneci
TTITLE13=La Estrella De David. El Parking Más Grande De Europa
TTITLE14=Plar: Requien For B.Johnson
TTITLE15=Pumuky: Lobo Estepario Contra Caballos Desbocados En JJ.OO.
TTITLE16=Travolta: El Día Que Más Corrí De Mi Vida
TTITLE17=Nadadora: Evelyn Ashford
TTITLE18=Uke: Mesa De Tenis
TTITLE19=Prin' Lalá: Naves Que Dan Vueltas A Un Balón
TTITLE20=Pinkie: Dirty Old Town
TTITLE21=Ama: Hasta El último Instante
TTITLE22=Apenino: Ceremonia De Clausura
EXTD=
EXTT0=
EXTT1=
EXTT2=
EXTT3=
EXTT4=
EXTT5=
EXTT6=
EXTT7=
EXTT8=
EXTT9=
EXTT10=
EXTT11=
EXTT12=
EXTT13=
EXTT14=
EXTT15=
EXTT16=
EXTT17=
EXTT18=
EXTT19=
EXTT20=
EXTT21=
EXTT22=
PLAYORDER=
